<?xml version="1.0" encoding="UTF-8"?>
<!DOCTYPE svg PUBLIC "-//W3C//DTD SVG 1.1//EN" "http://www.w3.org/Graphics/SVG/1.1/DTD/svg11.dtd">
<svg version="1.1" xmlns="http://www.w3.org/2000/svg" xmlns:xlink="http://www.w3.org/1999/xlink" x="0" y="0" width="270.312" height="212.318" viewBox="0, 0, 270.312, 212.318">
  <g id="Capa_1" transform="translate(-1196.688, -19.437)">
    <g>
      <g>
        <g>
          <path d="M1326.229,148.937 C1321.304,148.937 1284.438,93.809 1284.438,70.728 C1284.438,47.647 1303.149,28.937 1326.229,28.937 C1349.31,28.937 1368.021,47.647 1368.021,70.728 C1368.021,93.809 1330.558,148.937 1326.229,148.937 z" fill="#D60A44"/>
          <path d="M1326.229,148.937 C1321.304,148.937 1284.438,93.809 1284.438,70.728 C1284.438,47.647 1303.149,28.937 1326.229,28.937 C1349.31,28.937 1368.021,47.647 1368.021,70.728 C1368.021,93.809 1330.558,148.937 1326.229,148.937 z" fill-opacity="0" stroke="#FFFFFF" stroke-width="4"/>
        </g>
        <path d="M1343.124,84.445 Q1344.783,84.445 1345.964,85.626 Q1347.146,86.807 1347.146,88.466 Q1347.146,90.125 1345.889,91.432 Q1338.097,98.218 1327.541,98.218 Q1315.879,98.218 1307.634,89.974 Q1299.39,81.73 1299.39,70.068 Q1299.39,58.405 1307.634,50.161 Q1315.879,41.917 1327.541,41.917 Q1338.097,41.917 1345.889,48.704 Q1347.297,49.96 1347.297,51.82 Q1347.297,53.479 1346.115,54.66 Q1344.934,55.842 1343.275,55.842 Q1341.817,55.842 1340.711,54.937 Q1335.081,49.96 1327.541,49.96 Q1319.196,49.96 1313.315,55.842 Q1307.433,61.723 1307.433,70.068 Q1307.433,78.412 1313.315,84.294 Q1319.196,90.175 1327.541,90.175 Q1335.081,90.175 1340.661,85.249 Q1341.717,84.445 1343.124,84.445 z" fill="#FFFFFF"/>
      </g>
      <g>
        <path d="M1245.789,220.778 Q1246.805,220.778 1247.508,221.481 Q1248.211,222.185 1248.211,223.2 Q1248.211,224.177 1247.625,224.802 Q1243.25,228.2 1238.328,229.978 Q1233.406,231.755 1227.938,231.755 Q1221.57,231.755 1215.984,229.372 Q1210.398,226.989 1205.828,222.614 Q1201.453,218.044 1199.07,212.458 Q1196.688,206.872 1196.688,200.505 Q1196.688,187.575 1205.828,178.435 Q1215.008,169.255 1227.938,169.255 Q1239.07,169.255 1247.742,176.364 Q1248.445,177.067 1248.445,178.083 Q1248.445,179.06 1247.742,179.763 Q1247.039,180.466 1246.062,180.466 Q1245.047,180.466 1244.07,179.528 Q1237.312,174.06 1227.938,174.06 Q1217,174.06 1209.227,181.833 Q1201.492,189.567 1201.492,200.505 Q1201.492,211.481 1209.227,219.216 Q1216.961,226.95 1227.938,226.95 Q1237.391,226.95 1244.5,221.13 Q1245.008,220.778 1245.789,220.778 z" fill="#FFFFFF"/>
        <path d="M1267.312,209.333 L1259.148,230.271 Q1258.914,230.817 1258.602,231.13 Q1257.938,231.755 1256.922,231.755 Q1255.906,231.755 1255.203,231.052 Q1254.5,230.349 1254.5,229.333 Q1254.5,228.825 1254.734,228.278 L1277.039,170.974 Q1277.273,170.349 1277.664,169.919 Q1278.328,169.255 1279.344,169.255 Q1280.359,169.255 1281.062,169.958 Q1281.453,170.349 1281.688,170.974 L1303.953,228.278 Q1304.188,228.825 1304.188,229.333 Q1304.188,230.349 1303.484,231.052 Q1302.781,231.755 1301.805,231.755 Q1300.789,231.755 1300.125,231.169 Q1299.773,230.817 1299.539,230.271 L1291.414,209.333 z M1289.539,204.528 L1279.344,178.278 L1269.188,204.528 z" fill="#FFFFFF"/>
        <path d="M1315.555,174.06 L1315.555,201.325 L1329.188,201.325 Q1334.812,201.325 1338.797,197.341 Q1342.781,193.356 1342.781,187.692 Q1342.781,181.95 1338.797,178.083 Q1334.812,174.06 1329.188,174.06 z M1329.188,169.255 Q1336.844,169.255 1342.195,174.646 Q1347.586,180.036 1347.586,187.692 Q1347.586,195.349 1342.234,200.7 Q1339.695,203.239 1335.984,204.919 L1350.398,228.044 Q1350.828,228.669 1350.828,229.333 Q1350.828,230.349 1350.125,231.052 Q1349.422,231.755 1348.406,231.755 Q1347.156,231.755 1346.297,230.466 L1331.023,206.052 Q1330.203,206.13 1329.188,206.13 L1315.555,206.13 L1315.555,229.333 Q1315.555,230.349 1314.852,231.052 Q1314.148,231.755 1313.133,231.755 Q1312.156,231.755 1311.453,231.052 Q1310.75,230.349 1310.75,229.333 L1310.75,171.677 Q1310.75,170.661 1311.453,169.958 Q1312.156,169.255 1313.133,169.255 z" fill="#FFFFFF"/>
        <path d="M1362.43,174.06 L1362.43,201.325 L1376.062,201.325 Q1381.688,201.325 1385.672,197.341 Q1389.656,193.356 1389.656,187.692 Q1389.656,181.95 1385.672,178.083 Q1381.688,174.06 1376.062,174.06 z M1376.062,169.255 Q1383.719,169.255 1389.07,174.646 Q1394.461,180.036 1394.461,187.692 Q1394.461,195.349 1389.109,200.7 Q1386.57,203.239 1382.859,204.919 L1397.273,228.044 Q1397.703,228.669 1397.703,229.333 Q1397.703,230.349 1397,231.052 Q1396.297,231.755 1395.281,231.755 Q1394.031,231.755 1393.172,230.466 L1377.898,206.052 Q1377.078,206.13 1376.062,206.13 L1362.43,206.13 L1362.43,229.333 Q1362.43,230.349 1361.727,231.052 Q1361.023,231.755 1360.008,231.755 Q1359.031,231.755 1358.328,231.052 Q1357.625,230.349 1357.625,229.333 L1357.625,171.677 Q1357.625,170.661 1358.328,169.958 Q1359.031,169.255 1360.008,169.255 z" fill="#FFFFFF"/>
        <path d="M1435.75,174.06 Q1424.891,174.06 1417.039,181.833 Q1409.305,189.567 1409.305,200.505 Q1409.305,211.481 1417.039,219.216 Q1424.812,226.95 1435.75,226.95 Q1446.688,226.95 1454.422,219.216 Q1462.195,211.481 1462.195,200.505 Q1462.195,189.567 1454.422,181.833 Q1446.648,174.06 1435.75,174.06 z M1467,200.505 Q1467,213.435 1457.82,222.614 Q1448.719,231.755 1435.75,231.755 Q1429.383,231.755 1423.797,229.372 Q1418.211,226.989 1413.641,222.614 Q1409.266,218.044 1406.883,212.458 Q1404.5,206.872 1404.5,200.505 Q1404.5,187.575 1413.641,178.435 Q1422.82,169.255 1435.75,169.255 Q1448.758,169.255 1457.82,178.435 Q1467,187.575 1467,200.505 z" fill="#D62343"/>
      </g>
    </g>
  </g>
</svg>
